<svg xmlns="http://www.w3.org/2000/svg" viewBox="0 0 100 100">
  <defs>
    <linearGradient id="bg" x1="0" y1="0" x2="1" y2="1">
      <stop offset="0" stop-color="#8b6ff7"/>
      <stop offset="1" stop-color="#4930b8"/>
    </linearGradient>
    <radialGradient id="glow" cx=".25" cy=".15" r=".7">
      <stop offset="0" stop-color="#fff" stop-opacity=".35"/>
      <stop offset="1" stop-color="#fff" stop-opacity="0"/>
    </radialGradient>
    <linearGradient id="coin" x1="0" y1="0" x2="0" y2="1">
      <stop offset="0" stop-color="#ffd76a"/>
      <stop offset="1" stop-color="#f2a91c"/>
    </linearGradient>
    <clipPath id="slot"><rect x="0" y="0" width="100" height="40"/></clipPath>
  </defs>
  <rect width="100" height="100" rx="26" fill="url(#bg)"/>
  <rect width="100" height="100" rx="26" fill="url(#glow)"/>
  <g transform="translate(50 52) scale(1.1) translate(-48 -51)">
    <g clip-path="url(#slot)">
      <circle cx="45" cy="27" r="9" fill="url(#coin)"/>
      <circle cx="45" cy="27" r="6" fill="none" stroke="#c98a0a" stroke-width="1.6" opacity=".7"/>
      <path d="M45 23.5v7" stroke="#c98a0a" stroke-width="2" stroke-linecap="round" opacity=".8"/>
    </g>
    <rect x="31" y="70" width="9" height="12" rx="4" fill="#ddd6fe"/>
    <rect x="55" y="70" width="9" height="12" rx="4" fill="#ddd6fe"/>
    <path d="M22.5 56c-5 .5-7.5-3-5.5-6s5.5-1 4 2" fill="none" stroke="#fff" stroke-width="3" stroke-linecap="round"/>
    <ellipse cx="47" cy="59" rx="27" ry="21" fill="#fff"/>
    <path d="M56 42.5c0-7 3.5-11.5 7-11.5s5 5 3 12z" fill="#fff"/>
    <path d="M59 41c.3-4 2.2-6.5 4-6.5s2.5 3 1.5 6.8z" fill="#ddd6fe"/>
    <rect x="69" y="52" width="12" height="14" rx="5.5" fill="#ede9fe"/>
    <ellipse cx="73.5" cy="59" rx="1.4" ry="2.2" fill="#6c4cf1"/>
    <ellipse cx="77.5" cy="59" rx="1.4" ry="2.2" fill="#6c4cf1"/>
    <path d="M58.5 51.5q3-3.5 6 0" fill="none" stroke="#2e2170" stroke-width="2.6" stroke-linecap="round"/>
    <circle cx="63" cy="59.5" r="3.4" fill="#c4b5fd" opacity=".7"/>
    <rect x="37.5" y="39" width="15" height="3.4" rx="1.7" fill="#4930b8"/>
    <path d="M29 51q4-7 11-9" fill="none" stroke="#ede9fe" stroke-width="3" stroke-linecap="round"/>
  </g>
</svg>
